<?xml version="1.0" standalone="no"?>
<!DOCTYPE svg PUBLIC "-//W3C//DTD SVG 20010904//EN"
 "http://www.w3.org/TR/2001/REC-SVG-20010904/DTD/svg10.dtd">
<svg version="1.0" xmlns="http://www.w3.org/2000/svg"
 width="666.000000pt" height="375.000000pt" viewBox="0 0 666.000000 375.000000"
 preserveAspectRatio="xMidYMid meet">

<g transform="translate(0.000000,375.000000) scale(0.100000,-0.100000)"
fill="#000000" stroke="none">
<path d="M1930 2519 c-32 -13 -82 -61 -128 -124 -20 -27 -39 -52 -42 -55 -15
-13 -110 -141 -112 -150 -2 -6 21 -19 50 -30 28 -10 82 -39 118 -64 36 -25 69
-46 74 -46 45 0 -36 74 -138 125 -62 31 -66 20 55 169 106 132 126 148 195
154 104 8 187 -61 196 -163 5 -64 -11 -101 -88 -199 -40 -51 -47 -65 -34 -70
8 -3 17 -6 18 -6 2 0 29 34 61 76 86 111 101 192 55 284 -23 45 -56 75 -102
95 -42 17 -139 19 -178 4z"/>
<path d="M2504 2309 c-10 -17 13 -36 27 -22 12 12 4 33 -11 33 -5 0 -12 -5
-16 -11z"/>
<path d="M2914 2309 c-10 -17 13 -36 27 -22 12 12 4 33 -11 33 -5 0 -12 -5
-16 -11z"/>
<path d="M3008 2309 c-10 -5 -18 -16 -18 -24 0 -8 -8 -19 -17 -25 -12 -8 -14
-13 -6 -16 8 -4 10 -21 6 -55 -4 -33 -2 -49 5 -49 11 0 19 21 24 70 2 17 10
26 26 28 27 4 29 22 2 22 -23 0 -27 18 -5 25 51 16 50 16 35 25 -19 12 -31 12
-52 -1z"/>
<path d="M2346 2293 c-3 -10 -8 -40 -11 -68 -4 -27 -9 -58 -12 -67 -3 -13 1
-18 16 -18 14 0 21 8 23 28 2 20 9 28 28 30 55 6 71 14 81 39 7 19 6 31 -6 49
-13 20 -24 24 -65 24 -38 0 -50 -4 -54 -17z m94 -33 c0 -25 -45 -49 -61 -33
-6 6 -8 20 -4 32 9 30 65 30 65 1z"/>
<path d="M2550 2230 c-7 -45 -10 -83 -7 -86 13 -14 25 9 31 63 4 31 9 67 12
80 4 16 2 23 -9 23 -11 0 -18 -22 -27 -80z"/>
<path d="M2611 2273 c-20 -81 -23 -133 -8 -133 15 0 21 20 33 118 8 62 -10 73
-25 15z"/>
<path d="M2791 2243 c-7 -38 -14 -76 -17 -85 -5 -16 2 -18 44 -18 35 0 52 4
56 15 4 12 -3 15 -30 15 -32 0 -36 2 -31 23 3 12 9 43 12 70 6 38 4 47 -8 47
-11 0 -18 -19 -26 -67z"/>
<path d="M2496 2238 c-16 -79 -17 -98 -2 -98 10 0 17 14 21 38 3 20 8 47 11
60 3 15 0 22 -11 22 -8 0 -17 -10 -19 -22z"/>
<path d="M2672 2248 c-21 -21 -13 -39 23 -54 43 -18 45 -34 5 -34 -16 0 -30 5
-30 10 0 6 -4 10 -10 10 -5 0 -10 -6 -10 -14 0 -28 69 -36 90 -11 16 20 6 43
-25 55 -14 5 -25 14 -25 19 0 17 20 23 36 10 16 -13 30 -6 19 10 -9 15 -58 14
-73 -1z"/>
<path d="M2905 2223 c-3 -21 -8 -48 -11 -60 -3 -16 0 -23 11 -23 8 0 15 6 16
13 0 6 4 33 8 60 6 36 5 47 -5 47 -7 0 -16 -17 -19 -37z"/>
<path d="M3088 2243 c-25 -30 -29 -54 -13 -79 18 -28 60 -32 91 -10 17 14 15
15 -25 13 -28 -1 -45 3 -48 11 -3 8 9 12 41 12 41 0 46 2 46 23 0 13 -5 28
-12 35 -18 18 -63 15 -80 -5z m70 -20 c2 -9 -7 -13 -27 -13 -30 0 -39 9 -24
24 11 10 46 3 51 -11z"/>
<path d="M1549 2069 c-159 -209 -175 -244 -149 -339 16 -61 89 -134 150 -150
75 -20 162 1 209 52 l20 21 -25 19 c-42 33 -54 70 -54 160 0 97 16 132 80 174
l42 28 -24 19 c-27 22 -131 71 -169 80 -23 6 -32 -1 -80 -64z"/>
<path d="M2677 2032 c-10 -10 -17 -26 -17 -36 0 -17 76 -106 91 -106 4 0 -12
21 -36 46 -25 25 -45 54 -45 63 0 38 46 55 70 26 12 -14 15 -14 31 1 21 19 48
16 62 -7 11 -17 8 -28 -19 -69 -12 -18 -9 -17 10 5 31 35 33 56 8 78 -22 20
-36 21 -62 5 -15 -10 -22 -10 -32 0 -17 17 -42 15 -61 -6z"/>
<path d="M1938 2020 c-110 -17 -198 -79 -198 -139 0 -29 33 -81 52 -81 11 0
142 71 303 163 66 39 68 41 43 48 -50 13 -143 17 -200 9z"/>
<path d="M2023 1877 c-100 -56 -180 -104 -177 -108 9 -16 106 -33 179 -32 175
2 301 85 265 173 -13 32 -54 70 -74 70 -6 -1 -93 -47 -193 -103z"/>
<path d="M2562 1798 l-2 -98 50 0 50 0 0 -50 0 -50 95 0 95 0 0 50 0 50 50 0
50 0 0 95 c0 52 -3 95 -7 95 -5 0 -7 -40 -5 -90 l3 -90 -50 0 -51 0 0 -50 0
-50 -85 0 -85 0 0 50 0 50 -50 0 -49 0 -4 93 -3 92 -2 -97z"/>
<path d="M1740 1761 c0 -29 71 -86 131 -107 74 -25 215 -25 291 0 63 20 123
67 133 104 7 23 6 23 -47 -7 -60 -34 -160 -61 -229 -61 -64 0 -196 36 -241 65
-35 23 -38 24 -38 6z"/>
</g>
</svg>
